<svg xmlns="http://www.w3.org/2000/svg" width="23.42" height="23.42" viewBox="0 0 23.42 23.42"><g opacity="0.6"><path d="M117.1,191h-8.783A7.32,7.32,0,0,0,101,198.319V207.1a7.32,7.32,0,0,0,7.319,7.319H117.1a7.32,7.32,0,0,0,7.319-7.319v-8.783A7.32,7.32,0,0,0,117.1,191Zm5.123,16.1a5.129,5.129,0,0,1-5.123,5.123h-8.783A5.129,5.129,0,0,1,103.2,207.1v-8.783a5.129,5.129,0,0,1,5.123-5.123H117.1a5.129,5.129,0,0,1,5.123,5.123Zm0,0" transform="translate(-101 -191)" fill="#29754a"/><path d="M209.253,293.4a5.855,5.855,0,1,0,5.855,5.855,5.855,5.855,0,0,0-5.855-5.855Zm0,9.514a3.659,3.659,0,1,1,3.659-3.659,3.664,3.664,0,0,1-3.659,3.659Zm0,0" transform="translate(-197.543 -287.543)" fill="#29754a"/><path d="M403.794,272.854a.78.78,0,1,1-.78-.78.78.78,0,0,1,.78.78Zm0,0" transform="translate(-385.01 -267.438)" fill="#29754a"/></g></svg>