<svg xmlns="http://www.w3.org/2000/svg" width="29.791" height="20.481" viewBox="0 0 29.791 20.481"><g opacity="0.6"><path d="M129.525,256.974c-.808-1.438-1.685-1.7-3.471-1.8-1.784-.121-6.269-.171-10.155-.171s-8.381.05-10.163.169c-1.782.1-2.661.365-3.476,1.8-.832,1.436-1.261,3.908-1.261,8.261v.015c0,4.334.428,6.826,1.261,8.246.815,1.438,1.692,1.7,3.474,1.819,1.784.1,6.271.166,10.164.166s8.371-.062,10.157-.164c1.786-.121,2.662-.382,3.471-1.819.84-1.421,1.264-3.912,1.264-8.247v-.015c0-4.355-.425-6.828-1.266-8.263Zm-17.353,13.853V259.655l9.31,5.586Zm0,0" transform="translate(-101 -255)" fill="#29754a"/></g></svg>