<svg xmlns="http://www.w3.org/2000/svg" width="23.027" height="22.003" viewBox="0 0 23.027 22.003"><g transform="translate(-204 -123)" opacity="0.6"><path d="M227.027,136.492V145H222.09v-7.945c0-2-.712-3.355-2.5-3.355a2.7,2.7,0,0,0-2.532,1.8,3.42,3.42,0,0,0-.169,1.205V145h-4.933s.066-13.452,0-14.845h4.934v2.1c-.007.017-.021.032-.028.051h.028v-.051a4.9,4.9,0,0,1,4.449-2.452c3.255,0,5.687,2.121,5.687,6.683ZM206.793,123a2.574,2.574,0,1,0-.063,5.133h.03a2.575,2.575,0,1,0,.034-5.133Zm-2.5,22h4.934V130.157h-4.934Zm0,0" transform="translate(0 0)" fill="#29754a"/></g></svg>