<svg xmlns="http://www.w3.org/2000/svg" width="53.894" height="63.689" viewBox="0 0 53.894 63.689">
  <g id="Group_635" data-name="Group 635" transform="translate(-105.59 -168.196)">
    <path id="Path_7431" data-name="Path 7431" d="M109.533,203.325a3.8,3.8,0,0,0-2.794,1.149,3.755,3.755,0,0,0-1.149,2.755v16.459a3.924,3.924,0,0,0,3.941,3.943,3.738,3.738,0,0,0,2.776-1.149,3.833,3.833,0,0,0,1.13-2.794V207.229a3.924,3.924,0,0,0-3.9-3.9Zm0,0" transform="translate(0 -14.499)" fill="#fff"/>
    <path id="Path_7432" data-name="Path 7432" d="M121.559,230.056a4.179,4.179,0,0,0,4.212,4.209H128.6l.036,8.69a3.806,3.806,0,0,0,1.149,2.794,3.757,3.757,0,0,0,2.755,1.147,3.92,3.92,0,0,0,3.943-3.941v-8.69h5.283v8.69a3.941,3.941,0,1,0,7.882,0v-8.69h2.872a4.014,4.014,0,0,0,2.946-1.223,4.066,4.066,0,0,0,1.225-2.987V204.563H121.559Zm0,0" transform="translate(-6.591 -15.01)" fill="#fff"/>
    <path id="Path_7433" data-name="Path 7433" d="M147.708,174.052l2.718-5.015a.5.5,0,0,0-.193-.766.53.53,0,0,0-.763.231l-2.755,5.052a19.206,19.206,0,0,0-15.388,0l-2.755-5.052a.533.533,0,0,0-.766-.231.5.5,0,0,0-.19.766l2.716,5.015a16.769,16.769,0,0,0-6.584,5.875,14.837,14.837,0,0,0-2.45,8.249H156.7a14.837,14.837,0,0,0-2.45-8.249,16.826,16.826,0,0,0-6.547-5.875ZM132,181.342a1.437,1.437,0,0,1-1.053.44,1.371,1.371,0,0,1-1.032-.44,1.521,1.521,0,0,1,0-2.1,1.371,1.371,0,0,1,1.032-.44A1.487,1.487,0,0,1,132,181.342Zm16.133,0a1.374,1.374,0,0,1-1.034.44,1.492,1.492,0,0,1,0-2.984,1.374,1.374,0,0,1,1.034.44,1.521,1.521,0,0,1,0,2.1Zm0,0" transform="translate(-6.483)" fill="#fff"/>
    <path id="Path_7434" data-name="Path 7434" d="M190.7,204.455a3.83,3.83,0,0,0-2.794-1.13,3.781,3.781,0,0,0-2.755,1.13A3.736,3.736,0,0,0,184,207.229v16.459a3.8,3.8,0,0,0,1.149,2.794,3.753,3.753,0,0,0,2.755,1.149,3.924,3.924,0,0,0,3.943-3.943V207.229a3.736,3.736,0,0,0-1.149-2.774Zm0,0" transform="translate(-32.363 -14.499)" fill="#fff"/>
  </g>
</svg>
