<svg id="Group_435" data-name="Group 435" xmlns="http://www.w3.org/2000/svg" width="46.629" height="57.059" viewBox="0 0 46.629 57.059">
  <path id="Path_7261" data-name="Path 7261" d="M152.406,193.141c-4.823,8.371-1.757,21.074,3.577,28.776,2.663,3.851,5.358,7.308,9.051,7.308.069,0,.139,0,.21,0a11.167,11.167,0,0,0,4.2-1.119,11.5,11.5,0,0,1,4.976-1.179,10.82,10.82,0,0,1,4.736,1.141,10.03,10.03,0,0,0,4.537,1.088c4.159-.078,6.713-3.807,8.966-7.1a31.445,31.445,0,0,0,3.928-8.046l.016-.051a.468.468,0,0,0-.249-.574l-.034-.014A11.92,11.92,0,0,1,189.1,202.45c-.063-6.311,4.82-9.652,5.8-10.259l.046-.028a.469.469,0,0,0,.132-.657,13.5,13.5,0,0,0-10.614-5.764c-.3-.03-.614-.046-.926-.046a18.511,18.511,0,0,0-6.662,1.663,10.7,10.7,0,0,1-3.192.954,10.436,10.436,0,0,1-3.3-.965,15.975,15.975,0,0,0-5.818-1.478l-.147,0a14.267,14.267,0,0,0-12.008,7.269Zm0,0" transform="translate(-150.001 -172.166)" fill="#fff"/>
  <path id="Path_7262" data-name="Path 7262" d="M258.834,127.839a13.031,13.031,0,0,0-8.6,4.412c-1.8,2.082-3.553,5.552-3.089,9.051a.465.465,0,0,0,.427.4c.2.015.4.024.6.024a11.018,11.018,0,0,0,8.118-4.163,12.865,12.865,0,0,0,3.024-9.311.471.471,0,0,0-.484-.416Zm0,0" transform="translate(-224.37 -127.839)" fill="#fff"/>
</svg>
