<svg xmlns="http://www.w3.org/2000/svg" width="28.434" height="18.291" viewBox="0 0 28.434 18.291">
  <path id="Path_406" data-name="Path 406" d="M97.342,147.28H71.251a1.171,1.171,0,0,0-1.171,1.171V164.4a1.171,1.171,0,0,0,1.171,1.171H97.342a1.171,1.171,0,0,0,1.171-1.171V148.451A1.171,1.171,0,0,0,97.342,147.28Zm.251,15.695-9.58-7.556,9.58-5.937ZM71.251,148.2H97.342a.251.251,0,0,1,.239.178l-13.285,8.3-13.285-8.3A.251.251,0,0,1,71.251,148.2ZM71,149.427l9.556,5.968L71,162.975Zm26.342,15.217H71.251a.251.251,0,0,1-.251-.251v-.245l10.384-8.206,2.668,1.668a.46.46,0,0,0,.491,0l2.668-1.668,10.384,8.206v.245A.251.251,0,0,1,97.342,164.643Z" transform="translate(-70.08 -147.279)" fill="#6f6f6f" opacity="0.4"/>
</svg>
