<svg xmlns="http://www.w3.org/2000/svg" width="22.101" height="28.271" viewBox="0 0 22.101 28.271"><path d="M394.6,286H380v28.271h22.1V293.5Zm-9.979,6.169h5.14a.513.513,0,1,1,0,1.026h-5.14a.513.513,0,1,1,0-1.026Zm12.85,17.476h-12.85a.515.515,0,0,1,0-1.029h12.85a.515.515,0,0,1,0,1.029Zm0-4.114h-12.85a.513.513,0,1,1,0-1.026h12.85a.513.513,0,1,1,0,1.026Zm0-4.111h-12.85a.515.515,0,1,1,0-1.029h12.85a.515.515,0,1,1,0,1.029Zm0-4.111h-12.85a.515.515,0,1,1,0-1.029h12.85a.515.515,0,1,1,0,1.029Zm-3.6-3.085v-7.2l7.2,7.2Zm0,0" transform="translate(-380 -286)" fill="#fff"/></svg>