<svg xmlns="http://www.w3.org/2000/svg" width="25.284" height="31.448" viewBox="0 0 25.284 31.448"><path d="M402.055,297.186a1.218,1.218,0,0,0-1.094-.6,5.311,5.311,0,0,0-2.787.918,9.31,9.31,0,0,0-2.818,3.122,1.123,1.123,0,0,1-.775.564v-.229c0-.164,0-.361-.008-.577V288.6a2.129,2.129,0,1,0-4.258,0v8.251a.267.267,0,1,1-.533,0V284.876a2.129,2.129,0,0,0-4.258,0v11.979a.267.267,0,1,1-.533,0v-9.582a1.864,1.864,0,1,0-3.728,0v10.648a.265.265,0,0,1-.53,0v-6.655a1.866,1.866,0,0,0-3.733,0v14.48c.517,7.442,5.082,8.449,9.481,8.449a9.662,9.662,0,0,0,8.534-4.7c.208-.335.77-1.22,1.435-2.267,1.666-2.615,3.059-4.812,3.265-5.2a6.43,6.43,0,0,1,1.484-1.965,4.11,4.11,0,0,0,.972-1.279,2.014,2.014,0,0,0-.117-1.6Zm0,0" transform="translate(-377 -282.747)" fill="#fff"/></svg>