<svg xmlns="http://www.w3.org/2000/svg" width="20.053" height="29.108" viewBox="0 0 20.053 29.108"><g transform="translate(-371 -270)"><path d="M390.579,277.245a9.166,9.166,0,0,0-.471-1.166A9.972,9.972,0,0,0,371,279.03v1.241c0,.052.017.518.042.752.363,2.9,2.65,5.976,4.357,8.874,1.837,3.1,3.743,6.159,5.631,9.211,1.166-1.993,2.326-4.011,3.463-5.952.311-.568.671-1.137.981-1.68.207-.363.6-.725.783-1.061,1.837-3.364,4.795-6.753,4.795-10.091v-1.371a10.33,10.33,0,0,0-.474-1.707Zm-9.608,6.235a3.557,3.557,0,0,1-3.406-2.432,3.372,3.372,0,0,1-.1-.906v-.8a3.37,3.37,0,0,1,3.615-3.311,3.665,3.665,0,0,1,3.67,3.727,3.758,3.758,0,0,1-3.782,3.725Zm0,0" fill="#fff"/></g></svg>