<svg xmlns="http://www.w3.org/2000/svg" width="28.148" height="28.13" viewBox="0 0 28.148 28.13"><path d="M192.135,97.2a1.361,1.361,0,0,1-.417,1.192l-3.963,3.933a2.233,2.233,0,0,1-.7.507,2.9,2.9,0,0,1-.849.268q-.03,0-.179.015t-.387.015a13.752,13.752,0,0,1-1.833-.194,13.9,13.9,0,0,1-3.1-.954,26.036,26.036,0,0,1-4.157-2.28,31.01,31.01,0,0,1-4.947-4.172,32.669,32.669,0,0,1-3.457-3.934,28.016,28.016,0,0,1-2.205-3.472,18.668,18.668,0,0,1-1.251-2.891A15.328,15.328,0,0,1,164.124,83,7.369,7.369,0,0,1,164,81.526q.03-.536.03-.6a2.9,2.9,0,0,1,.268-.849,2.23,2.23,0,0,1,.507-.7l3.963-3.963a1.313,1.313,0,0,1,.954-.417,1.111,1.111,0,0,1,.685.223,2.073,2.073,0,0,1,.507.551l3.188,6.049a1.451,1.451,0,0,1,.149,1.043,1.855,1.855,0,0,1-.507.954l-1.46,1.46a.5.5,0,0,0-.1.194.738.738,0,0,0-.045.223,5.374,5.374,0,0,0,.536,1.43,13.137,13.137,0,0,0,1.1,1.743,19.359,19.359,0,0,0,2.116,2.369,19.723,19.723,0,0,0,2.384,2.131,13.759,13.759,0,0,0,1.743,1.117,4.647,4.647,0,0,0,1.073.432l.372.074a.713.713,0,0,0,.194-.045.5.5,0,0,0,.194-.1l1.7-1.728a1.826,1.826,0,0,1,1.251-.477,1.558,1.558,0,0,1,.8.179h.03l5.751,3.4a1.5,1.5,0,0,1,.745.984Zm0,0" transform="translate(-164 -75)" fill="#fff"/></svg>