<svg xmlns="http://www.w3.org/2000/svg" width="28.346" height="27.159" viewBox="0 0 28.346 27.159"><path d="M403.733,299.912a2.034,2.034,0,0,0-1.128-3.467l-6.863-1a.9.9,0,0,1-.676-.491L392,288.737a2.034,2.034,0,0,0-3.648,0l-3.068,6.219a.9.9,0,0,1-.676.491l-6.863,1a2.032,2.032,0,0,0-1.128,3.467l4.967,4.839a.9.9,0,0,1,.258.8l-1.172,6.835a2,2,0,0,0,.443,1.649,2.052,2.052,0,0,0,2.508.494l6.137-3.226a.916.916,0,0,1,.837,0l6.139,3.226a2,2,0,0,0,.945.238,2.036,2.036,0,0,0,1.56-.732,2,2,0,0,0,.443-1.649l-1.172-6.835a.9.9,0,0,1,.258-.8Zm0,0" transform="translate(-376 -287.603)" fill="#fff"/></svg>