<svg xmlns="http://www.w3.org/2000/svg" width="30.393" height="30.393" viewBox="0 0 30.393 30.393"><g transform="translate(-374 -284)"><path d="M401.076,284a3.315,3.315,0,0,0-2.914,4.9l-5.431,5.431a4.4,4.4,0,0,0-5.413,0l-4.238-4.236a2.161,2.161,0,0,0,.316-1.117,2.211,2.211,0,1,0-2.213,2.21,2.183,2.183,0,0,0,1.118-.313l4.238,4.239a4.391,4.391,0,0,0,0,5.413l-7,7a3.281,3.281,0,1,0,.691.871l7.088-7.09a4.375,4.375,0,0,0,2.156.9v5.615a3.315,3.315,0,1,0,1.1,0V302.2a4.375,4.375,0,0,0,2.156-.9l4.236,4.239a2.186,2.186,0,0,0-.313,1.117,2.21,2.21,0,1,0,2.21-2.21,2.162,2.162,0,0,0-1.114.313l-4.239-4.239a4.388,4.388,0,0,0,0-5.413l5.339-5.339A3.314,3.314,0,1,0,401.076,284Zm0,0" fill="#fff"/></g></svg>